<svg width="489" height="329" viewBox="0 0 489 329" fill="none" xmlns="http://www.w3.org/2000/svg">
<g filter="url(#filter0_d_309_2)">
<path d="M70.2894 203.709C65.1985 203.709 60.2246 203.153 55.3677 202.042C50.5694 200.871 46.6196 199.321 43.5182 197.389L50.189 182.292C53.1149 183.989 56.3918 185.364 60.0198 186.418C63.6478 187.412 67.1295 187.91 70.4649 187.91C73.3322 187.91 75.3803 187.647 76.6091 187.12C77.838 186.535 78.4524 185.686 78.4524 184.574C78.4524 183.287 77.6332 182.322 75.9947 181.678C74.4148 181.034 71.7816 180.332 68.095 179.571C63.3552 178.576 59.4054 177.523 56.2455 176.411C53.0856 175.241 50.3353 173.369 47.9947 170.794C45.654 168.161 44.4837 164.62 44.4837 160.173C44.4837 156.311 45.5663 152.8 47.7314 149.64C49.8965 146.48 53.1149 143.993 57.3865 142.179C61.7168 140.365 66.954 139.458 73.0982 139.458C77.3113 139.458 81.4367 139.926 85.4744 140.863C89.5705 141.74 93.1693 143.057 96.2706 144.813L90.0386 159.822C84.0115 156.779 78.3061 155.258 72.9226 155.258C67.5976 155.258 64.9351 156.545 64.9351 159.12C64.9351 160.349 65.7251 161.285 67.3051 161.929C68.885 162.514 71.489 163.157 75.117 163.86C79.7983 164.737 83.7481 165.761 86.9665 166.932C90.1849 168.044 92.9644 169.887 95.3051 172.462C97.7043 175.036 98.9039 178.547 98.9039 182.994C98.9039 186.857 97.8213 190.368 95.6562 193.527C93.4911 196.629 90.2434 199.116 85.9132 200.988C81.6415 202.802 76.4336 203.709 70.2894 203.709Z" fill="white"/>
<path d="M146.936 191.596H123.588L119.463 202.305H98.3971L125.256 140.863H145.62L172.479 202.305H151.062L146.936 191.596ZM141.231 176.675L135.262 161.226L129.294 176.675H141.231Z" fill="white"/>
<path d="M196.499 156.487V167.02H222.13V182.643H196.499V202.305H175.785V140.863H225.728V156.487H196.499Z" fill="white"/>
<path d="M283.357 186.681V202.305H232.272V140.863H282.216V156.487H252.636V163.684H278.617V178.606H252.636V186.681H283.357Z" fill="white"/>
<path d="M304.673 156.925H286.679V140.863H343.382V156.925H325.388V202.305H304.673V156.925Z" fill="white"/>
<path d="M383.562 180.01V202.305H362.847V179.747L339.675 140.863H361.53L374.082 162.104L386.722 140.863H406.734L383.562 180.01Z" fill="white"/>
<path d="M79.1546 310.19C72.6593 310.19 66.8077 308.844 61.5997 306.152C56.3918 303.402 52.2956 299.598 49.3113 294.741C46.3855 289.826 44.9226 284.267 44.9226 278.064C44.9226 271.862 46.3855 266.332 49.3113 261.475C52.2956 256.56 56.3918 252.756 61.5997 250.064C66.8077 247.314 72.6593 245.939 79.1546 245.939C85.1233 245.939 90.4482 246.992 95.1295 249.099C99.8109 251.205 103.673 254.248 106.716 258.227L93.6374 269.901C89.8338 265.103 85.3573 262.704 80.2079 262.704C75.8777 262.704 72.396 264.108 69.7627 266.917C67.1295 269.667 65.8129 273.383 65.8129 278.064C65.8129 282.746 67.1295 286.491 69.7627 289.299C72.396 292.05 75.8777 293.425 80.2079 293.425C85.3573 293.425 89.8338 291.026 93.6374 286.227L106.716 297.901C103.673 301.88 99.8109 304.923 95.1295 307.03C90.4482 309.136 85.1233 310.19 79.1546 310.19Z" fill="white"/>
<path d="M141.244 310.19C131.823 310.19 124.479 307.644 119.213 302.553C113.946 297.462 111.313 290.323 111.313 281.136V247.343H132.028V280.522C132.028 285.028 132.818 288.305 134.398 290.353C136.036 292.401 138.377 293.425 141.42 293.425C144.462 293.425 146.774 292.401 148.354 290.353C149.992 288.305 150.811 285.028 150.811 280.522V247.343H171.175V281.136C171.175 290.323 168.542 297.462 163.275 302.553C158.009 307.644 150.665 310.19 141.244 310.19Z" fill="white"/>
<path d="M180.671 247.343H201.385V292.723H229.122V308.785H180.671V247.343Z" fill="white"/>
<path d="M242.442 263.406H224.449V247.343H281.151V263.406H263.157V308.785H242.442V263.406Z" fill="white"/>
<path d="M315.079 310.19C305.657 310.19 298.314 307.644 293.047 302.553C287.781 297.462 285.147 290.323 285.147 281.136V247.343H305.862V280.522C305.862 285.028 306.652 288.305 308.232 290.353C309.871 292.401 312.211 293.425 315.254 293.425C318.297 293.425 320.608 292.401 322.188 290.353C323.827 288.305 324.646 285.028 324.646 280.522V247.343H345.01V281.136C345.01 290.323 342.376 297.462 337.11 302.553C331.843 307.644 324.5 310.19 315.079 310.19Z" fill="white"/>
<path d="M380.837 293.337H375.22V308.785H354.505V247.343H384.085C389.761 247.343 394.706 248.279 398.919 250.152C403.132 252.024 406.38 254.716 408.662 258.227C410.944 261.738 412.085 265.834 412.085 270.516C412.085 274.904 411.09 278.737 409.101 282.014C407.111 285.291 404.244 287.895 400.499 289.826L413.402 308.785H391.283L380.837 293.337ZM391.195 270.516C391.195 268.234 390.493 266.478 389.088 265.249C387.684 263.962 385.577 263.318 382.768 263.318H375.22V277.713H382.768C385.577 277.713 387.684 277.099 389.088 275.87C390.493 274.583 391.195 272.798 391.195 270.516Z" fill="white"/>
<path d="M470.992 293.161V308.785H419.907V247.343H469.851V262.967H440.271V270.165H466.252V285.086H440.271V293.161H470.992Z" fill="white"/>
</g>
<g filter="url(#filter1_d_309_2)">
<path d="M191.677 31.2051C192.483 33.9962 193.146 34.7633 194.765 34.6501C197.599 34.4519 198.111 30.1451 196.007 26.2245C192.518 19.9602 181.856 15.8246 167.142 14.8196C154.885 14.0496 134.081 16.1145 116.021 19.6146C69.6647 28.551 19.2996 49.9706 15.0889 62.4681C13.0423 68.1026 16.3004 73.9762 27.6033 84.372C40.2055 95.8972 46.6509 106.633 53.3879 115.721C58.3218 122.291 64.504 135.078 68.5674 143.743C71.2325 149.862 71.2466 150.064 71.9302 156.931C72.5714 163.191 72.8587 164.391 74.0263 166.547C74.935 167.907 76.0602 169.456 76.9122 170.006C78.3997 170.919 78.6163 171.107 80.3812 170.17C83.3463 168.946 82.9784 163.684 79.0324 153.791L77.2618 148.83L77.9667 141.459C78.6291 133.48 81.1966 117.844 83.3083 107.323L85.7682 95.9653L90.5549 94.6136C101.098 91.2324 108.718 89.6826 117.623 89.0599C124.707 88.5645 126.138 88.6679 127.395 89.1901C130.803 91.3924 133.453 88.5632 131.39 85.2498C128.881 81.3576 113.094 82.4615 94.5264 87.4209C90.9399 88.4852 87.9323 89.1023 87.7299 89.1164C87.2968 88.7399 88.4305 84.593 91.5259 73.5972C95.4352 59.6971 99.6741 47.6044 104.431 37.1026C106.549 32.4801 108.289 28.2907 108.275 28.0883C108.204 27.0763 110.2 26.53 117.618 24.9944C149.327 18.9127 175.564 18.9086 186.583 25.2564C189.747 26.8657 190.858 28.2117 191.677 31.2051ZM97.2723 39.4336C92.0355 51.7995 87.505 65.5396 83.4783 80.6682C82.2412 86.2461 80.7452 91.0285 80.5711 91.4475C80.3829 91.664 78.199 92.4269 75.6103 93.218C68.8421 95.3184 64.3428 97.8702 63.8488 99.5318C63.5289 100.775 63.5572 101.179 64.4234 101.932C65.0731 102.497 65.9251 103.048 66.3299 103.019C66.7347 102.991 69.6998 101.767 73.0556 100.312C76.2231 99.0733 78.9859 97.8632 79.2024 98.0515C79.2166 98.2538 77.4247 107.531 76.376 112.893C75.5296 118.24 74.0576 126.275 73.5452 130.582L72.2756 138.602L70.6041 135.058C62.3315 118.553 52.703 100.108 34.6305 83.0671C25.2624 74.1631 22.6355 71.4994 20.9781 68.1578C19.8246 66.2046 19.7963 65.7998 20.5068 64.3264C21.5655 62.0152 25.0246 59.1293 32.2443 54.7602C45.5259 46.9164 70.2591 37.0515 92.6159 31.0137C97.4026 29.6621 101.596 28.5553 101.596 28.5553C101.799 28.5412 99.6954 33.3661 97.2723 39.4336Z" fill="#57782C"/>
<path d="M157.625 111.482C156.382 111.162 155.182 111.45 150.64 113.394C146.3 115.325 145.303 115.598 145.651 114.76C145.825 114.341 145.872 112.101 145.904 109.658C145.838 105.798 145.795 105.191 144.468 103.657C142.679 101.341 140.8 100.659 138.198 101.248C137.2 101.521 135.595 101.837 134.799 102.096C130.982 102.769 127.999 106.639 124.503 114.815C122.414 119.843 120.683 127.082 120.895 130.118C121.164 133.964 123.4 136.858 126.493 137.455C128.14 137.747 130.931 136.941 133.087 135.774C135.228 134.404 139.92 128.788 141.717 125.408C142.588 123.313 143.153 122.664 145.539 121.886C150.89 119.885 157.574 116.57 158.501 115.285C160.007 113.553 159.503 112.165 157.625 111.482ZM131.448 129.787C129.523 131.345 127.744 132.08 127.296 131.501C126.647 130.936 126.609 127.481 127.234 124.794C127.756 123.537 128.076 122.294 128.076 122.294C128.279 122.28 129.131 122.83 130.171 123.164C131.225 123.701 132.685 124.209 133.697 124.138C134.506 124.082 135.316 124.025 135.33 124.227C135.387 125.037 132.968 128.257 131.448 129.787ZM139.231 116.023C138.548 117.901 138.158 118.132 136.35 118.461C133.922 118.631 131.855 118.166 131.38 117.182C130.89 115.996 133.036 111.778 135.511 109.368C137.987 106.957 139.375 106.454 140.081 107.828C140.759 108.797 140.247 113.104 139.231 116.023Z" fill="#57782C"/>
<path d="M188.853 109.299C187.611 108.979 186.41 109.266 181.869 111.211C177.529 113.141 176.531 113.414 176.879 112.577C177.054 112.158 177.1 109.917 177.133 107.474C177.066 103.615 177.024 103.007 175.696 101.473C173.907 99.1576 172.029 98.4754 169.426 99.0642C168.429 99.3373 166.824 99.653 166.028 99.912C162.211 100.586 159.227 104.455 155.731 112.632C153.642 117.659 151.911 124.898 152.124 127.934C152.393 131.78 154.629 134.674 157.721 135.271C159.369 135.563 162.16 134.758 164.315 133.59C166.457 132.22 171.149 126.604 172.946 123.224C173.817 121.129 174.381 120.48 176.768 119.703C182.119 117.701 188.802 114.387 189.729 113.102C191.235 111.369 190.731 109.981 188.853 109.299ZM162.676 127.603C160.752 129.161 158.973 129.896 158.525 129.317C157.876 128.752 157.837 125.298 158.463 122.61C158.985 121.353 159.305 120.11 159.305 120.11C159.508 120.096 160.36 120.647 161.4 120.981C162.454 121.517 163.913 122.025 164.925 121.955C165.735 121.898 166.545 121.841 166.559 122.044C166.615 122.853 164.197 126.073 162.676 127.603ZM170.459 113.839C169.777 115.717 169.387 115.948 167.579 116.278C165.151 116.447 163.084 115.982 162.609 114.998C162.119 113.812 164.265 109.594 166.74 107.184C169.215 104.774 170.604 104.27 171.31 105.644C171.988 106.614 171.476 110.921 170.459 113.839Z" fill="#57782C"/>
<path d="M241.508 105.21C239.888 105.323 238.976 106.811 237.494 111.795C234.587 122.575 227.641 136.687 224.545 138.937C223.184 139.846 220.991 137.559 219.248 133.003C217.996 129.633 217.708 128.433 216.987 118.111C216.35 109.003 216.472 104.927 216.828 98.3935C218.285 81.4108 220.796 64.9645 224.667 47.6096C228.218 31.4973 228.264 29.2568 225.765 28.4147C222.658 27.615 222.122 28.6695 219.516 40.8513C216.008 57.5708 210.264 80.1412 205.79 94.691L205.282 96.1502L203.592 95.2514C198.047 91.5715 192.272 96.2464 188.193 107.718C183.808 120.634 184.427 132.387 189.845 134.246C194.641 135.944 198.001 131.641 204.226 115.952C206.127 111.141 207.91 107.559 208.691 107.098C209.459 106.434 209.633 106.015 209.331 104.613C209.058 103.615 209.35 101.967 210.032 100.089L211.034 96.9682L211.072 100.423C210.997 102.259 210.861 106.133 210.829 108.575C210.674 115.095 211.339 124.607 212.272 129.22C213.794 136.435 217.052 142.309 220.446 144.309C224.259 146.483 228.57 144.147 232.424 138.183C236.843 131.569 244.403 111.719 244.12 107.671C244.007 106.052 243.127 105.097 241.508 105.21ZM198.126 115.972C196.023 120.797 193.905 125.419 193.166 126.488L191.689 128.625L191.171 127.034C189.099 120.671 196.316 98.811 200.26 99.9588C200.665 99.9305 201.545 100.886 202.007 101.667C202.958 103.634 202.624 104.675 198.126 115.972Z" fill="#57782C"/>
</g>
<defs>
<filter id="filter0_d_309_2" x="29.5182" y="125.458" width="459.474" height="202.731" filterUnits="userSpaceOnUse" color-interpolation-filters="sRGB">
<feFlood flood-opacity="0" result="BackgroundImageFix"/>
<feColorMatrix in="SourceAlpha" type="matrix" values="0 0 0 0 0 0 0 0 0 0 0 0 0 0 0 0 0 0 127 0" result="hardAlpha"/>
<feOffset dx="2" dy="2"/>
<feGaussianBlur stdDeviation="8"/>
<feComposite in2="hardAlpha" operator="out"/>
<feColorMatrix type="matrix" values="0 0 0 0 0 0 0 0 0 0 0 0 0 0 0 0 0 0 0.75 0"/>
<feBlend mode="multiply" in2="BackgroundImageFix" result="effect1_dropShadow_309_2"/>
<feBlend mode="normal" in="SourceGraphic" in2="effect1_dropShadow_309_2" result="shape"/>
</filter>
<filter id="filter1_d_309_2" x="0.515015" y="0.659058" width="261.613" height="188.129" filterUnits="userSpaceOnUse" color-interpolation-filters="sRGB">
<feFlood flood-opacity="0" result="BackgroundImageFix"/>
<feColorMatrix in="SourceAlpha" type="matrix" values="0 0 0 0 0 0 0 0 0 0 0 0 0 0 0 0 0 0 127 0" result="hardAlpha"/>
<feOffset dx="2" dy="2"/>
<feGaussianBlur stdDeviation="8"/>
<feComposite in2="hardAlpha" operator="out"/>
<feColorMatrix type="matrix" values="0 0 0 0 0 0 0 0 0 0 0 0 0 0 0 0 0 0 0.75 0"/>
<feBlend mode="multiply" in2="BackgroundImageFix" result="effect1_dropShadow_309_2"/>
<feBlend mode="normal" in="SourceGraphic" in2="effect1_dropShadow_309_2" result="shape"/>
</filter>
</defs>
</svg>
