<svg width="460" height="204" viewBox="0 0 460 204" fill="none" xmlns="http://www.w3.org/2000/svg">
<g filter="url(#filter0_d_208_447)">
<path d="M41.2894 78.7092C36.1985 78.7092 31.2246 78.1533 26.3677 77.0415C21.5694 75.8712 17.6196 74.3205 14.5182 72.3895L21.189 57.2923C24.1149 58.9893 27.3918 60.3644 31.0198 61.4177C34.6478 62.4125 38.1295 62.9098 41.4649 62.9098C44.3322 62.9098 46.3803 62.6465 47.6091 62.1199C48.838 61.5347 49.4524 60.6862 49.4524 59.5744C49.4524 58.2871 48.6332 57.3215 46.9947 56.6779C45.4148 56.0342 42.7816 55.332 39.095 54.5713C34.3552 53.5765 30.4054 52.5232 27.2455 51.4114C24.0856 50.2411 21.3353 48.3685 18.9947 45.7938C16.654 43.1606 15.4837 39.6204 15.4837 35.1731C15.4837 31.311 16.5663 27.8001 18.7314 24.6402C20.8965 21.4803 24.1149 18.9934 28.3865 17.1794C32.7168 15.3654 37.954 14.4584 44.0982 14.4584C48.3113 14.4584 52.4367 14.9265 56.4744 15.8627C60.5705 16.7405 64.1693 18.0571 67.2706 19.8126L61.0386 34.822C55.0115 31.7792 49.3061 30.2578 43.9226 30.2578C38.5976 30.2578 35.9351 31.5451 35.9351 34.1198C35.9351 35.3487 36.7251 36.2849 38.3051 36.9286C39.885 37.5138 42.489 38.1575 46.117 38.8596C50.7983 39.7374 54.7481 40.7614 57.9665 41.9318C61.1849 43.0436 63.9644 44.8868 66.3051 47.4615C68.7043 50.0363 69.9039 53.5472 69.9039 57.9945C69.9039 61.8565 68.8213 65.3675 66.6562 68.5274C64.4911 71.6288 61.2434 74.1157 56.9132 75.9882C52.6415 77.8022 47.4336 78.7092 41.2894 78.7092Z" fill="white"/>
<path d="M117.936 66.5964H94.5883L90.463 77.3048H69.3971L96.2561 15.8627H116.62L143.479 77.3048H122.062L117.936 66.5964ZM112.231 51.6747L106.262 36.2264L100.294 51.6747H112.231Z" fill="white"/>
<path d="M167.499 31.4866V42.0195H193.13V57.6434H167.499V77.3048H146.785V15.8627H196.728V31.4866H167.499Z" fill="white"/>
<path d="M254.357 61.681V77.3048H203.272V15.8627H253.216V31.4866H223.636V38.6841H249.617V53.6058H223.636V61.681H254.357Z" fill="white"/>
<path d="M275.673 31.9255H257.679V15.8627H314.382V31.9255H296.388V77.3048H275.673V31.9255Z" fill="white"/>
<path d="M354.562 55.0101V77.3048H333.847V54.7468L310.675 15.8627H332.53L345.082 37.1042L357.722 15.8627H377.734L354.562 55.0101Z" fill="white"/>
<path d="M50.1546 185.19C43.6593 185.19 37.8077 183.844 32.5997 181.152C27.3918 178.402 23.2956 174.598 20.3113 169.741C17.3855 164.826 15.9226 159.267 15.9226 153.064C15.9226 146.862 17.3855 141.332 20.3113 136.475C23.2956 131.56 27.3918 127.756 32.5997 125.064C37.8077 122.314 43.6593 120.939 50.1546 120.939C56.1233 120.939 61.4482 121.992 66.1295 124.099C70.8109 126.205 74.6729 129.248 77.7158 133.227L64.6374 144.901C60.8338 140.103 56.3573 137.704 51.2079 137.704C46.8777 137.704 43.396 139.108 40.7627 141.917C38.1295 144.667 36.8129 148.383 36.8129 153.064C36.8129 157.746 38.1295 161.491 40.7627 164.299C43.396 167.05 46.8777 168.425 51.2079 168.425C56.3573 168.425 60.8338 166.026 64.6374 161.227L77.7158 172.901C74.6729 176.88 70.8109 179.923 66.1295 182.03C61.4482 184.136 56.1233 185.19 50.1546 185.19Z" fill="white"/>
<path d="M112.244 185.19C102.823 185.19 95.4791 182.644 90.2127 177.553C84.9462 172.462 82.313 165.323 82.313 156.136V122.343H103.028V155.522C103.028 160.028 103.818 163.305 105.398 165.353C107.036 167.401 109.377 168.425 112.42 168.425C115.462 168.425 117.774 167.401 119.354 165.353C120.992 163.305 121.811 160.028 121.811 155.522V122.343H142.175V156.136C142.175 165.323 139.542 172.462 134.275 177.553C129.009 182.644 121.665 185.19 112.244 185.19Z" fill="white"/>
<path d="M151.671 122.343H172.385V167.723H200.122V183.785H151.671V122.343Z" fill="white"/>
<path d="M213.442 138.406H195.449V122.343H252.151V138.406H234.157V183.785H213.442V138.406Z" fill="white"/>
<path d="M286.079 185.19C276.657 185.19 269.314 182.644 264.047 177.553C258.781 172.462 256.147 165.323 256.147 156.136V122.343H276.862V155.522C276.862 160.028 277.652 163.305 279.232 165.353C280.871 167.401 283.211 168.425 286.254 168.425C289.297 168.425 291.608 167.401 293.188 165.353C294.827 163.305 295.646 160.028 295.646 155.522V122.343H316.01V156.136C316.01 165.323 313.376 172.462 308.11 177.553C302.843 182.644 295.5 185.19 286.079 185.19Z" fill="white"/>
<path d="M351.837 168.337H346.22V183.785H325.505V122.343H355.085C360.761 122.343 365.706 123.279 369.919 125.152C374.132 127.024 377.38 129.716 379.662 133.227C381.944 136.738 383.085 140.834 383.085 145.516C383.085 149.904 382.09 153.737 380.101 157.014C378.111 160.291 375.244 162.895 371.499 164.826L384.402 183.785H362.283L351.837 168.337ZM362.195 145.516C362.195 143.234 361.493 141.478 360.088 140.249C358.684 138.962 356.577 138.318 353.768 138.318H346.22V152.713H353.768C356.577 152.713 358.684 152.099 360.088 150.87C361.493 149.583 362.195 147.798 362.195 145.516Z" fill="white"/>
<path d="M441.992 168.161V183.785H390.907V122.343H440.851V137.967H411.271V145.165H437.252V160.086H411.271V168.161H441.992Z" fill="white"/>
</g>
<defs>
<filter id="filter0_d_208_447" x="0.518188" y="0.458359" width="459.474" height="202.731" filterUnits="userSpaceOnUse" color-interpolation-filters="sRGB">
<feFlood flood-opacity="0" result="BackgroundImageFix"/>
<feColorMatrix in="SourceAlpha" type="matrix" values="0 0 0 0 0 0 0 0 0 0 0 0 0 0 0 0 0 0 127 0" result="hardAlpha"/>
<feOffset dx="2" dy="2"/>
<feGaussianBlur stdDeviation="8"/>
<feComposite in2="hardAlpha" operator="out"/>
<feColorMatrix type="matrix" values="0 0 0 0 0 0 0 0 0 0 0 0 0 0 0 0 0 0 0.75 0"/>
<feBlend mode="multiply" in2="BackgroundImageFix" result="effect1_dropShadow_208_447"/>
<feBlend mode="normal" in="SourceGraphic" in2="effect1_dropShadow_208_447" result="shape"/>
</filter>
</defs>
</svg>
