<svg width="28" height="32" viewBox="0 0 28 32" fill="none" xmlns="http://www.w3.org/2000/svg">
<path d="M24.7626 0H3.23744C1.44529 0 0 1.3986 0 3.13287V18.2378C0 19.972 1.44529 21.3706 3.23744 21.3706H24.7626C26.5547 21.3706 28 19.972 28 18.2378V3.13287C28 1.3986 26.5547 0 24.7626 0ZM24.0688 2.68531L13.9904 11.8974L3.93118 2.68531H24.0688ZM2.77495 16.6713V5.33333L8.30557 10.3869L2.77495 16.6713ZM4.66346 18.6667L10.329 12.2517L12.4102 14.1538C13.2966 14.9744 14.6841 14.9744 15.5705 14.1538L17.6518 12.2517L23.3173 18.6667H4.66346ZM25.2058 16.6713L19.6752 10.4056L25.2058 5.35198V16.6713ZM15.3971 24.8951V30.6573C15.3971 31.4033 14.7805 32 14.0096 32C13.2388 32 12.6222 31.4033 12.6222 30.6573V24.8951C12.6222 24.1492 13.2388 23.5524 14.0096 23.5524C14.7612 23.5524 15.3971 24.1492 15.3971 24.8951ZM21.7178 24.8951V28.662C21.7178 29.4079 21.1012 30.0047 20.3304 30.0047C19.5595 30.0047 18.9429 29.4079 18.9429 28.662V24.8951C18.9429 24.1492 19.5595 23.5524 20.3304 23.5524C21.1012 23.5524 21.7178 24.1492 21.7178 24.8951ZM8.86442 24.8951V28.662C8.86442 29.4079 8.24776 30.0047 7.47694 30.0047C6.70613 30.0047 6.08947 29.4079 6.08947 28.662V24.8951C6.08947 24.1492 6.70613 23.5524 7.47694 23.5524C8.24776 23.5524 8.86442 24.1492 8.86442 24.8951Z" fill="#1B3000"/>
</svg>
