<svg width="26" height="32" viewBox="0 0 26 32" fill="none" xmlns="http://www.w3.org/2000/svg">
<path d="M7.05162 0.461426C8.23538 0.75946 8.95767 1.57409 9.47933 2.60727C10.1013 3.85901 10.5427 5.17036 10.6832 6.58105C10.8437 8.19044 10.2819 9.46205 8.93761 10.3959C8.65672 10.5946 8.37583 10.7734 8.07487 10.9125C7.65353 11.131 7.49302 11.4688 7.49302 11.9059C7.49302 12.4424 7.61341 12.959 7.79398 13.4358C8.7771 16.1181 10.0812 18.6216 11.8067 20.9065C12.1077 21.3039 12.4488 21.6417 12.85 21.9199C13.2112 22.1583 13.5723 22.198 13.9736 21.9795C14.6959 21.602 15.4382 21.2642 16.2408 21.0854C17.6653 20.7675 18.9695 21.0258 20.1131 21.9397C21.1564 22.7742 21.9389 23.7875 22.4806 24.9797C23.2832 26.7083 22.8418 28.3375 21.2567 29.5694C20.1332 30.4436 18.829 31.0198 17.4847 31.4569C17.0433 31.4569 16.5819 31.4569 16.1405 31.4569C15.0771 31.2384 14.0739 30.8211 13.151 30.2648C11.265 29.1323 9.63984 27.662 8.25544 25.9731C3.96181 20.6681 1.03251 14.767 0.530921 7.8328C0.450666 6.48171 0.571049 5.13062 1.05258 3.83914C1.31341 3.14373 1.65449 2.46819 2.33665 2.07081C3.46022 1.435 4.58379 0.739591 5.88793 0.461426C6.26914 0.461426 6.67041 0.461426 7.05162 0.461426Z" fill="#1B3000"/>
<path d="M25.7115 15.0252C25.7115 16.1776 24.7484 16.9326 23.7251 16.5948C23.1232 16.3961 22.742 15.8398 22.7019 15.1245C22.5213 11.8263 20.9764 9.26318 18.328 7.29616C18.0271 7.05773 17.6659 6.89878 17.3248 6.71996C16.743 6.40205 16.422 5.80599 16.5223 5.19005C16.6226 4.55424 17.1041 4.07739 17.7662 3.93831C18.1073 3.8787 18.4083 3.95818 18.7092 4.11713C20.1538 4.81254 21.3576 5.82586 22.4009 7.01799C24.0662 8.92541 25.1296 11.111 25.5509 13.6145C25.5911 13.8132 25.6111 14.0119 25.6312 14.2105C25.6914 14.4688 25.6914 14.747 25.7115 15.0252Z" fill="#1B3000"/>
<path d="M20.3539 15.8597C20.3539 16.7737 19.9727 17.33 19.1902 17.5287C18.2873 17.7472 17.4447 17.0916 17.3644 16.1378C17.1838 13.9125 16.1004 12.2435 14.1743 11.111C13.4921 10.7136 13.1912 9.91888 13.5122 9.20359C13.8332 8.48831 14.6558 8.15054 15.4182 8.44858C16.1606 8.74661 16.7826 9.24333 17.3644 9.77979C18.9896 11.3097 19.9727 13.1774 20.3138 15.363C20.3539 15.502 20.3539 15.6809 20.3539 15.8597Z" fill="#1B3000"/>
</svg>
